<svg viewBox="0 0 1440 292" fill="none" xmlns="http://www.w3.org/2000/svg">
<path d="M0 291C0 291 40 292.5 88.5 261C137 229.5 288 184.68 448 179C608 173.718 833 237.5 993 237.5C1153 237.5 1232.5 171.889 1312.5 140L1439.5 83.4999V39.9999H1328C1248 39.9999 1088 39.9999 928 39.9999C768 39.9999 608 39.9999 448 39.9999C288 39.9999 128 39.9999 48 39.9999H0V291Z" fill="#F1F7F9" fill-opacity="0.4"/>
<path d="M0 286.5C0 286.5 36 289.5 78.5 260.5C121 231.5 288 165.18 448 159.5C608 154.218 833 222.5 993 222.5C1153 222.5 1202 171.889 1282 140L1439.5 48V3H1328C1248 3 1088 3 928 3C768 3 608 3 448 3C288 3 128 3 48 3H0V286.5Z" fill="#F1F7F9" fill-opacity="0.6"/>
<path d="M0 287L80 249.83C160 212.26 320 138.517 480 132.837C640 127.556 800 191.333 960 191.333C1120 191.333 1280 127.556 1360 95.6667L1440 63.7778V0H1360C1280 0 1120 0 960 0C800 0 640 0 480 0C320 0 160 0 80 0H0V287Z" fill="#F1F7F9"/>
</svg>
